<svg width="10" height="10" viewBox="0 0 10 10" fill="none" xmlns="http://www.w3.org/2000/svg">
<path fill-rule="evenodd" clip-rule="evenodd" d="M0.5 2C0.5 2.82843 1.17157 3.5 2 3.5C2.82843 3.5 3.5 2.82843 3.5 2C3.5 1.17157 2.82843 0.5 2 0.5C1.17157 0.5 0.5 1.17157 0.5 2ZM6.5 2C6.5 2.82843 7.17157 3.5 8 3.5C8.82843 3.5 9.5 2.82843 9.5 2C9.5 1.17157 8.82843 0.5 8 0.5C7.17157 0.5 6.5 1.17157 6.5 2ZM8 9.5C7.17157 9.5 6.5 8.82843 6.5 8C6.5 7.17157 7.17157 6.5 8 6.5C8.82843 6.5 9.5 7.17157 9.5 8C9.5 8.82843 8.82843 9.5 8 9.5ZM0.5 8C0.5 8.82843 1.17157 9.5 2 9.5C2.82843 9.5 3.5 8.82843 3.5 8C3.5 7.17157 2.82843 6.5 2 6.5C1.17157 6.5 0.5 7.17157 0.5 8Z" fill="black" fill-opacity="0.8"/>
</svg>
