<svg width="16" height="16" viewBox="0 0 16 16" fill="none" xmlns="http://www.w3.org/2000/svg">
<path fill-rule="evenodd" clip-rule="evenodd" d="M1 8C1 4.13401 4.13401 1 8 1C11.866 1 15 4.13401 15 8C15 11.866 11.866 15 8 15C4.13401 15 1 11.866 1 8ZM8 16C3.58172 16 0 12.4183 0 8C0 3.58172 3.58172 0 8 0C12.4183 0 16 3.58172 16 8C16 12.4183 12.4183 16 8 16ZM8.5 12.0001V11.5001V8.37411V7.87411H7.5V8.37411V11.5001V12.0001H8.5ZM8.75 5.00009C8.75 5.41431 8.41421 5.75009 8 5.75009C7.58579 5.75009 7.25 5.41431 7.25 5.00009V4.93153C7.25 4.51732 7.58579 4.18153 8 4.18153C8.41421 4.18153 8.75 4.51732 8.75 4.93153V5.00009Z" fill="black"/>
</svg>
