<svg width="19" height="13" viewBox="0 0 19 13" fill="none" xmlns="http://www.w3.org/2000/svg">
<path fill-rule="evenodd" clip-rule="evenodd" d="M8.57777 12.1602H9.94828C10.2535 11.8399 10.619 11.5628 11.0323 11.3415C12.6429 10.4791 15.3956 10.4324 16.9007 11.45H17.5213H18.5213V10.45V2.25C18.5213 2.25 17.6532 0 13.7058 0C11.6085 0 10.4851 0.635142 9.89263 1.23052C9.50415 1.62093 9.34402 1.99425 9.28742 2.16016H9.23392C9.17732 1.99425 9.01719 1.62093 8.62871 1.23052C8.03629 0.635142 6.91281 0 4.81555 0C0.868188 0 0 2.25 0 2.25V10.44V11.44H1H1.62062C3.12709 10.4215 5.88201 10.4702 7.49159 11.3356C7.90618 11.5585 8.27243 11.8377 8.57777 12.1602ZM9.76074 2.466V10.9825C10.0088 10.7868 10.2765 10.6119 10.5603 10.4599C11.5466 9.93182 12.8114 9.68218 14.0132 9.69079C15.0979 9.69856 16.254 9.91798 17.1849 10.45H17.5213V2.49752C17.5137 2.48558 17.5054 2.47298 17.4964 2.45976C17.4035 2.32276 17.2391 2.11966 16.9731 1.90902C16.4554 1.49911 15.4755 1 13.7058 1C11.9333 1 11.0774 1.49922 10.6762 1.86446C10.4668 2.05509 10.3507 2.23651 10.2896 2.35532C10.2589 2.41515 10.2421 2.45935 10.2346 2.48076C10.231 2.49141 10.2297 2.49617 10.2303 2.4941L10.2325 2.48565L10.2345 2.47728L10.2357 2.47201L10.2364 2.4691L10.2367 2.46758C10.2367 2.46744 10.2368 2.4673 10.2315 2.466H9.76074ZM8.76074 2.466H8.2898C8.28457 2.4673 8.2846 2.46744 8.28463 2.46758L8.28497 2.4691L8.28563 2.47201L8.28685 2.47728L8.28887 2.48565L8.29108 2.4941L8.29121 2.49457C8.29121 2.49457 8.28983 2.48978 8.2867 2.48076C8.27928 2.45935 8.26242 2.41515 8.23169 2.35532C8.17067 2.23651 8.05457 2.05509 7.84517 1.86446C7.44398 1.49922 6.58803 1 4.81555 1C3.04583 1 2.06599 1.49911 1.54825 1.90902C1.2822 2.11966 1.11785 2.32276 1.02493 2.45976C1.01596 2.47298 1.00766 2.48558 1 2.49752V10.44H1.33643C2.26826 9.90748 3.42549 9.68837 4.51097 9.68135C5.71359 9.67358 6.97907 9.92464 7.96515 10.4548C8.24755 10.6067 8.51392 10.7813 8.76074 10.9765V2.466Z" fill="black"/>
</svg>
